<svg width="32.000000" height="38.000000" viewBox="0 0 32 38" fill="none" xmlns="http://www.w3.org/2000/svg" xmlns:xlink="http://www.w3.org/1999/xlink">
	<desc>
			Created with Pixso.
	</desc>
	<defs/>
	<path id="icon-gift.svg" d="M30.5778 11.2058L30.527 11.2058L18.1841 11.2058C25.0921 7.7616 25.6508 5.58362 25.3968 4.36792C24.8381 2.39258 22.5524 0.873047 20.419 1.68347C17.6254 2.74719 16.8635 6.90051 16.1016 9.88892C15.1365 6.84985 14.2222 3.00037 12.0381 1.02502C11.4286 0.467896 10.5143 -0.0892334 9.14286 0.0119629C7.11111 0.2146 4.21587 2.69653 5.43492 5.4823C6.55238 8.16675 10.2603 9.88892 12.7492 11.2565L1.42222 11.2565C0.609524 11.2565 0 11.9149 0 12.6747L0 18.3475C0 19.158 0.660316 19.7657 1.42222 19.7657L1.5746 19.7657L1.5746 38L30.527 38L30.527 19.7657L30.5778 19.7657C31.3905 19.7657 32 19.1073 32 18.3475L32 12.6747C32 11.8643 31.3397 11.2058 30.5778 11.2058ZM21.2317 2.94971C22.2984 2.79785 23.7206 3.60815 23.873 4.57056C24.0762 5.93811 22.1968 7.20435 21.3333 7.7616C20.0635 8.62256 18.8444 9.07849 17.6762 9.7876C18.0825 7.91345 18.946 3.25366 21.2317 2.94971ZM9.75238 7.91345C8.63492 7.15381 6.50159 5.68494 6.55238 4.01343C6.60317 2.18994 9.44762 0.721069 10.9714 2.08862C12.9016 3.76013 13.8159 7.66028 14.527 10.3954C12.9016 9.58496 11.3778 8.97717 9.75238 7.91345ZM12.7492 36.4805L3.04762 36.4805L3.04762 19.7657L12.7492 19.7657L12.7492 36.4805ZM12.7492 18.2462L1.52381 18.2462L1.52381 12.7253L12.7492 12.7253L12.7492 18.2462ZM17.8286 36.4805L14.2222 36.4805L14.2222 12.7253L17.8286 12.7253L17.8286 36.4805ZM29.0032 36.4805L19.3524 36.4805L19.3524 19.7657L29.054 19.7657L29.054 36.4805L29.0032 36.4805ZM30.4762 18.2462L19.3524 18.2462L19.3524 12.7253L30.4762 12.7253L30.4762 18.2462Z" fill="#81B3D2" fill-opacity="1.000000" fill-rule="nonzero"/>
</svg>
