<svg width="39.000000" height="36.830444" viewBox="0 0 39 36.8304" fill="none" xmlns="http://www.w3.org/2000/svg" xmlns:xlink="http://www.w3.org/1999/xlink">
	<desc>
			Created with Pixso.
	</desc>
	<defs/>
	<path id="Vector" d="M15.4015 33.2194L23.7549 33.2194L23.7549 21.0613L15.4015 21.0613L15.4015 33.2194ZM22.2408 31.7441L16.9155 31.7441L16.9155 22.5365L22.1886 22.5365L22.1886 31.7441L22.2408 31.7441Z" fill="#81B3D2" fill-opacity="1.000000" fill-rule="nonzero"/>
	<path id="Vector" d="M37.9036 20.0431L39 18.9749L33.8313 13.9386L33.8313 0.203491L26.6265 0.203491L26.6265 6.91846L19.4739 0L0 19.0256L1.09639 20.094L5.16867 16.1261L5.16867 35.3552L3.13253 35.3552L3.13253 36.8304L36.494 36.8304L36.494 35.3552L33.8313 35.3552L33.8313 16.0752L37.9036 20.0431ZM28.1406 1.72961L32.2651 1.72961L32.2651 12.4634L28.1406 8.44458L28.1406 1.72961ZM32.3173 35.3043L6.73494 35.3043L6.73494 14.6L19.4739 2.1366L32.2651 14.6L32.2651 35.3043L32.3173 35.3043Z" fill="#81B3D2" fill-opacity="1.000000" fill-rule="nonzero"/>
	<path id="Vector" d="M15.5582 13.8367C15.5582 16.0242 17.3855 17.8047 19.5783 17.8047C21.8233 17.8047 23.6506 16.0242 23.6506 13.8367C23.6506 11.6493 21.8233 9.91968 19.5783 9.91968C17.3333 9.91968 15.5582 11.6493 15.5582 13.8367ZM19.5783 11.2932C20.9879 11.2932 22.1888 12.4124 22.1888 13.8367C22.1888 15.2102 21.0402 16.3802 19.5783 16.3802C18.1687 16.3802 16.9679 15.2611 16.9679 13.8367C16.9679 12.4633 18.1687 11.2932 19.5783 11.2932Z" fill="#81B3D2" fill-opacity="1.000000" fill-rule="nonzero"/>
	<path id="Vector" d="M8.82324 21.0613L10.3895 21.0613L10.3895 23.0453L8.82324 23.0453L8.82324 21.0613Z" fill="#81B3D2" fill-opacity="1.000000" fill-rule="evenodd"/>
	<path id="Vector" d="M11.9036 21.0613L13.4698 21.0613L13.4698 23.0453L11.9036 23.0453L11.9036 21.0613Z" fill="#81B3D2" fill-opacity="1.000000" fill-rule="evenodd"/>
	<path id="Vector" d="M8.82324 24.1128L10.3895 24.1128L10.3895 26.0968L8.82324 26.0968L8.82324 24.1128Z" fill="#81B3D2" fill-opacity="1.000000" fill-rule="evenodd"/>
	<path id="Vector" d="M11.9036 24.1128L13.4698 24.1128L13.4698 26.0968L11.9036 26.0968L11.9036 24.1128Z" fill="#81B3D2" fill-opacity="1.000000" fill-rule="evenodd"/>
	<path id="Vector" d="M25.478 21.0613L27.0443 21.0613L27.0443 23.0453L25.478 23.0453L25.478 21.0613Z" fill="#81B3D2" fill-opacity="1.000000" fill-rule="evenodd"/>
	<path id="Vector" d="M28.6106 21.0613L30.1769 21.0613L30.1769 23.0453L28.6106 23.0453L28.6106 21.0613Z" fill="#81B3D2" fill-opacity="1.000000" fill-rule="evenodd"/>
	<path id="Vector" d="M25.478 24.1128L27.0443 24.1128L27.0443 26.0968L25.478 26.0968L25.478 24.1128Z" fill="#81B3D2" fill-opacity="1.000000" fill-rule="evenodd"/>
	<path id="Vector" d="M28.6106 24.1128L30.1769 24.1128L30.1769 26.0968L28.6106 26.0968L28.6106 24.1128Z" fill="#81B3D2" fill-opacity="1.000000" fill-rule="evenodd"/>
</svg>
