<svg width="8.699997" height="18.899902" viewBox="0 0 8.7 18.8999" fill="none" xmlns="http://www.w3.org/2000/svg" xmlns:xlink="http://www.w3.org/1999/xlink">
	<desc>
			Created with Pixso.
	</desc>
	<defs>
		<linearGradient id="paint_linear_73_239_0" x1="4.349998" y1="0.000000" x2="4.349998" y2="18.900000" gradientUnits="userSpaceOnUse">
			<stop stop-color="#FFFFFF"/>
			<stop offset="1.000000" stop-color="#E1E1E1"/>
		</linearGradient>
	</defs>
	<path id="icon-facebook.svg" d="M6.3 3.3999C7.10001 3.3999 7.89999 3.3999 8.7 3.3999C8.7 2.30005 8.7 1.19995 8.7 0C7.7 0 6.8 0 5.8 0C2.7 0.199951 1.5 2.3999 1.89999 6.1001L0 6.1001L0 9.6001L2 9.6001C2 12.7 2 15.8 2 18.8999C3.3 18.8999 4.60001 18.8999 5.8 18.8999C5.8 15.8 5.8 12.7 5.8 9.6001L8.7 9.6001L8.7 6.1001L5.8 6.1001C5.8 5.1001 5.8 3.69995 6.3 3.3999Z" fill="#FFFFFF" fill-opacity="1.000000" fill-rule="nonzero"/>
	<path id="icon-facebook.svg" d="M6.3 3.3999C7.10001 3.3999 7.89999 3.3999 8.7 3.3999C8.7 2.30005 8.7 1.19995 8.7 0C7.7 0 6.8 0 5.8 0C2.7 0.199951 1.5 2.3999 1.89999 6.1001L0 6.1001L0 9.6001L2 9.6001C2 12.7 2 15.8 2 18.8999C3.3 18.8999 4.60001 18.8999 5.8 18.8999C5.8 15.8 5.8 12.7 5.8 9.6001L8.7 9.6001L8.7 6.1001L5.8 6.1001C5.8 5.1001 5.8 3.69995 6.3 3.3999Z" fill="url(#paint_linear_73_239_0)" fill-opacity="0" fill-rule="nonzero"/>
</svg>
