<svg class="youtube-svg" width="19.905" height="14" fill="none" xmlns="http://www.w3.org/2000/svg"><defs>
  <linearGradient id="a" x1="9.953" y1="0" x2="9.953" y2="14" gradientUnits="userSpaceOnUse">
  <stop stop-color="#FFF"/><stop offset="1" stop-color="#E1E1E1"/></linearGradient></defs>
  <path d="M17.1 0H2.8C1.3 0 0 1.3 0 2.8v8.3C0 12.7 1.3 14 2.8 14h14.3c1.6 0 2.8-1.3 2.8-2.8V2.8C20 1.3 18.7 0 17.1 0ZM7 10.4V3.6L13.8 7 7 10.4Z" fill="#FFF"/>
  <path d="M17.1 0H2.8C1.3 0 0 1.3 0 2.8v8.3C0 12.7 1.3 14 2.8 14h14.3c1.6 0 2.8-1.3 2.8-2.8V2.8C20 1.3 18.7 0 17.1 0ZM7 10.4V3.6L13.8 7 7 10.4Z" fill="none"/>
</svg>
