<svg class="service-house-svg" width="39" height="36.83" fill="none" xmlns="http://www.w3.org/2000/svg">
  <path d="M15.402 33.22h8.353V21.06h-8.353V33.22Zm6.839-1.476h-5.325v-9.207h5.273v9.207h.052Z" fill="#81B3D2"/>
  <path d="M37.904 20.043 39 18.975l-5.169-5.036V.203h-7.205v6.715L19.474 0 0 19.026l1.096 1.068 4.073-3.968v19.23H3.133v1.474h33.361v-1.475h-2.663v-19.28l4.073 3.968ZM28.14 1.73h4.124v10.733l-4.124-4.018V1.73Zm4.176 33.574H6.735V14.6L19.474 2.137 32.265 14.6v20.704h.052Z" fill="#81B3D2"/>
  <path d="M15.558 13.837c0 2.187 1.828 3.968 4.02 3.968 2.245 0 4.073-1.78 4.073-3.968 0-2.188-1.828-3.917-4.073-3.917s-4.02 1.73-4.02 3.917Zm4.02-2.544c1.41 0 2.61 1.12 2.61 2.544 0 1.373-1.148 2.543-2.61 2.543-1.41 0-2.61-1.119-2.61-2.543 0-1.374 1.2-2.544 2.61-2.544Z" fill="#81B3D2"/>
  <path d="M8.823 21.061h1.566v1.984H8.823v-1.984ZM11.904 21.061h1.566v1.984h-1.566v-1.984ZM8.823 24.113h1.566v1.984H8.823v-1.984ZM11.904 24.113h1.566v1.984h-1.566v-1.984ZM25.478 21.061h1.566v1.984h-1.566v-1.984ZM28.61 21.061h1.567v1.984H28.61v-1.984ZM25.478 24.113h1.566v1.984h-1.566v-1.984ZM28.61 24.113h1.567v1.984H28.61v-1.984Z" fill="#81B3D2" fill-rule="evenodd"/>
</svg>
